<svg width="188" height="183" viewBox="0 0 188 183" fill="none" xmlns="http://www.w3.org/2000/svg">
<g clip-path="url(#clip0_14_2)">
<rect width="188" height="183" rx="91.5" fill="url(#paint0_linear_14_2)"/>
<path d="M94.666 233.921L200.68 20.9466L-12.3542 21.4504L94.666 233.921Z" fill="#AFAFAF"/>
<path d="M81.2756 67H77.321L83.3466 49.5455H88.1023L94.1193 67H90.1648L85.7926 53.5341H85.6562L81.2756 67ZM81.0284 60.1392H90.3693V63.0199H81.0284V60.1392ZM96.2202 67V49.5455H99.9105V57.2415H100.141L106.422 49.5455H110.845L104.368 57.3608L110.922 67H106.507L101.726 59.8239L99.9105 62.0398V67H96.2202ZM56.4467 125H50.2592V107.545H56.4979C58.2536 107.545 59.7649 107.895 61.032 108.594C62.299 109.287 63.2734 110.284 63.9553 111.585C64.6428 112.886 64.9865 114.443 64.9865 116.256C64.9865 118.074 64.6428 119.636 63.9553 120.943C63.2734 122.25 62.2933 123.253 61.0149 123.952C59.7422 124.651 58.2195 125 56.4467 125ZM53.9496 121.838H56.2933C57.3842 121.838 58.3018 121.645 59.0462 121.259C59.7962 120.866 60.3587 120.261 60.7337 119.443C61.1143 118.619 61.3047 117.557 61.3047 116.256C61.3047 114.966 61.1143 113.912 60.7337 113.094C60.3587 112.276 59.799 111.673 59.0547 111.287C58.3104 110.901 57.3928 110.707 56.3018 110.707H53.9496V121.838ZM67.7202 125V107.545H79.4815V110.588H71.4105V114.747H78.8764V117.79H71.4105V121.957H79.5156V125H67.7202ZM91.8842 112.565C91.8161 111.878 91.5234 111.344 91.0064 110.963C90.4893 110.582 89.7876 110.392 88.9013 110.392C88.299 110.392 87.7905 110.477 87.3757 110.648C86.9609 110.812 86.6428 111.043 86.4212 111.338C86.2053 111.634 86.0973 111.969 86.0973 112.344C86.0859 112.656 86.1513 112.929 86.2933 113.162C86.4411 113.395 86.6428 113.597 86.8984 113.767C87.1541 113.932 87.4496 114.077 87.7848 114.202C88.12 114.321 88.478 114.423 88.8587 114.509L90.4268 114.884C91.1882 115.054 91.8871 115.281 92.5234 115.565C93.1598 115.849 93.7109 116.199 94.1768 116.614C94.6428 117.028 95.0036 117.517 95.2592 118.08C95.5206 118.642 95.6541 119.287 95.6598 120.014C95.6541 121.082 95.3814 122.009 94.8416 122.793C94.3075 123.571 93.5348 124.176 92.5234 124.608C91.5178 125.034 90.3047 125.247 88.8842 125.247C87.4751 125.247 86.2479 125.031 85.2024 124.599C84.1626 124.168 83.3501 123.528 82.7649 122.682C82.1854 121.83 81.8814 120.776 81.853 119.52H85.424C85.4638 120.105 85.6314 120.594 85.9268 120.986C86.228 121.372 86.6286 121.665 87.1286 121.864C87.6342 122.057 88.2053 122.153 88.8416 122.153C89.4666 122.153 90.0092 122.062 90.4695 121.881C90.9354 121.699 91.2962 121.446 91.5518 121.122C91.8075 120.798 91.9354 120.426 91.9354 120.006C91.9354 119.614 91.8189 119.284 91.5859 119.017C91.3587 118.75 91.0234 118.523 90.5803 118.335C90.1428 118.148 89.6058 117.977 88.9695 117.824L87.0689 117.347C85.5973 116.989 84.4354 116.429 83.5831 115.668C82.7308 114.906 82.3075 113.881 82.3132 112.591C82.3075 111.534 82.5888 110.611 83.157 109.821C83.7308 109.031 84.5178 108.415 85.5178 107.972C86.5178 107.528 87.6541 107.307 88.9268 107.307C90.2223 107.307 91.353 107.528 92.3189 107.972C93.2905 108.415 94.0462 109.031 94.5859 109.821C95.1257 110.611 95.4041 111.526 95.4212 112.565H91.8842ZM101.832 107.545V125H98.142V107.545H101.832ZM116.442 113.188C116.323 112.773 116.156 112.406 115.94 112.088C115.724 111.764 115.46 111.491 115.147 111.27C114.84 111.043 114.488 110.869 114.09 110.75C113.698 110.631 113.263 110.571 112.786 110.571C111.894 110.571 111.11 110.793 110.434 111.236C109.763 111.679 109.241 112.324 108.866 113.17C108.491 114.011 108.303 115.04 108.303 116.256C108.303 117.472 108.488 118.506 108.857 119.358C109.227 120.21 109.749 120.861 110.425 121.31C111.102 121.753 111.9 121.974 112.82 121.974C113.656 121.974 114.369 121.827 114.96 121.531C115.556 121.23 116.011 120.807 116.323 120.261C116.641 119.716 116.8 119.071 116.8 118.327L117.55 118.438H113.05V115.659H120.354V117.858C120.354 119.392 120.031 120.71 119.383 121.812C118.735 122.909 117.843 123.756 116.707 124.352C115.57 124.943 114.269 125.239 112.803 125.239C111.167 125.239 109.729 124.878 108.491 124.156C107.252 123.429 106.286 122.398 105.593 121.062C104.906 119.722 104.562 118.131 104.562 116.29C104.562 114.875 104.766 113.614 105.175 112.506C105.59 111.392 106.17 110.449 106.914 109.676C107.658 108.903 108.525 108.315 109.513 107.912C110.502 107.509 111.573 107.307 112.727 107.307C113.715 107.307 114.636 107.452 115.488 107.741C116.34 108.026 117.096 108.429 117.755 108.952C118.42 109.474 118.962 110.097 119.383 110.818C119.803 111.534 120.073 112.324 120.192 113.188H116.442ZM137.726 107.545V125H134.538L126.945 114.014H126.817V125H123.126V107.545H126.365L133.899 118.523H134.053V107.545H137.726Z" fill="white"/>
</g>
<defs>
<linearGradient id="paint0_linear_14_2" x1="188" y1="146.606" x2="-4.85348e-07" y2="36.3941" gradientUnits="userSpaceOnUse">
<stop offset="0.16" stop-color="#6F6D6D"/>
<stop offset="1" stop-color="#DBDBDB"/>
</linearGradient>
<clipPath id="clip0_14_2">
<rect width="188" height="183" rx="91.5" fill="white"/>
</clipPath>
</defs>
</svg>
